
        <svg xmlns="http://www.w3.org/2000/svg" xmlns:xlink="http://www.w3.org/1999/xlink" version="1.1" width="3171.4285714285716" 
        height="1672.3358641960224" viewBox="0 0 3171.4285714285716 1672.3358641960224">
			
			<g transform="scale(8.571428571428571) translate(10, 10)">
				<defs id="SvgjsDefs6947"></defs><g id="SvgjsG6948" featureKey="DMynUx-0" transform="matrix(1.4957264957264955,0,0,1.4957264957264955,108,0)" fill="#146e79">    <title xmlns="http://www.w3.org/2000/svg">X Symbols-12</title>    <g xmlns="http://www.w3.org/2000/svg" id="Page-1" stroke-width="1" fill-rule="evenodd">        <g id="Artboard" transform="translate(-2008.000000, -1235.000000)" fill-rule="nonzero">            <g id="X-Symbols-12" transform="translate(2008.000000, 1235.000000)">                <polygon id="Path" points="83 0 60.8584867 0 43.594683 17.0981211 38.1141104 11.5615866 16 11.5615866 43.594683 39" stroke="none" fill="#146e79"></polygon>                <polygon id="Path" points="78.519833 17 51 44.6220859 90 84 90 61.8858896 72.9290188 44.6220859 78.519833 39.1141104" stroke="none" fill="#146e79"></polygon>                <polygon id="Path" points="11.5455177 72 39 44.4375767 0 5 0 27.1322145 17.1285615 44.4375767 11.5455177 49.8677855" stroke="none" fill="#146e79"></polygon>                <polygon id="Path" points="5 89 27.1141104 89 44.405317 71.8866481 49.8584867 77.4735744 72 77.4735744 44.405317 50" stroke="none" fill="#146e79"></polygon>            </g>        </g>    </g></g><g id="SvgjsG6949" featureKey="xgcenu-0" transform="matrix(1.3938114736541156,0,0,1.3938114736541156,-1.2265535917035841,145.66855465266673)" fill="#ffffff"><path d="M13.48 9.96 l-1.88 0 c-0.54 -2.52 -2.64 -2.98 -4.02 -2.98 c-2.6 0 -4.7 1.92 -4.7 5.7 c0 3.38 1.2 5.98 4.76 5.98 c1.26 0 3.44 -0.6 4.1 -3.94 l1.88 0 c-0.8 5.42 -5.2 5.66 -6.28 5.66 c-3.26 0 -6.46 -2.12 -6.46 -7.64 c0 -4.42 2.52 -7.48 6.7 -7.48 c3.7 0 5.62 2.3 5.9 4.7 z M24.3875 13.84 l0 6.16 l-1.94 0 l0 -14.36 l6.64 0 c2.36 0 4.72 0.82 4.72 3.86 c0 2.12 -1.08 2.9 -2 3.44 c0.82 0.34 1.64 0.7 1.72 2.7 l0.12 2.6 c0.02 0.8 0.12 1.1 0.72 1.44 l0 0.32 l-2.38 0 c-0.28 -0.88 -0.34 -3.06 -0.34 -3.6 c0 -1.18 -0.24 -2.56 -2.56 -2.56 l-4.7 0 z M24.3875 7.3 l0 4.88 l4.5 0 c1.42 0 2.92 -0.36 2.92 -2.48 c0 -2.22 -1.62 -2.4 -2.58 -2.4 l-4.84 0 z M54.155 12.82 c0 -3.38 -1.88 -5.84 -5 -5.84 s-5 2.46 -5 5.84 s1.88 5.84 5 5.84 s5 -2.46 5 -5.84 z M56.155 12.82 c0 3.1 -1.64 7.56 -7 7.56 s-7 -4.46 -7 -7.56 s1.64 -7.56 7 -7.56 s7 4.46 7 7.56 z M75.1825 9.84 l-1.82 0 c-0.1 -2.22 -1.94 -2.92 -3.56 -2.92 c-1.22 0 -3.28 0.34 -3.28 2.52 c0 1.22 0.86 1.62 1.7 1.82 l4.1 0.94 c1.86 0.44 3.26 1.56 3.26 3.84 c0 3.4 -3.16 4.34 -5.62 4.34 c-2.66 0 -3.7 -0.8 -4.34 -1.38 c-1.22 -1.1 -1.46 -2.3 -1.46 -3.64 l1.82 0 c0 2.6 2.12 3.36 3.96 3.36 c1.4 0 3.76 -0.36 3.76 -2.42 c0 -1.5 -0.7 -1.98 -3.06 -2.54 l-2.94 -0.68 c-0.94 -0.22 -3.06 -0.88 -3.06 -3.38 c0 -2.24 1.46 -4.44 4.94 -4.44 c5.02 0 5.52 3 5.6 4.58 z M94.77 9.84 l-1.82 0 c-0.1 -2.22 -1.94 -2.92 -3.56 -2.92 c-1.22 0 -3.28 0.34 -3.28 2.52 c0 1.22 0.86 1.62 1.7 1.82 l4.1 0.94 c1.86 0.44 3.26 1.56 3.26 3.84 c0 3.4 -3.16 4.34 -5.62 4.34 c-2.66 0 -3.7 -0.8 -4.34 -1.38 c-1.22 -1.1 -1.46 -2.3 -1.46 -3.64 l1.82 0 c0 2.6 2.12 3.36 3.96 3.36 c1.4 0 3.76 -0.36 3.76 -2.42 c0 -1.5 -0.7 -1.98 -3.06 -2.54 l-2.94 -0.68 c-0.94 -0.22 -3.06 -0.88 -3.06 -3.38 c0 -2.24 1.46 -4.44 4.94 -4.44 c5.02 0 5.52 3 5.6 4.58 z M105.7775 7.3 l0 4.42 l3.5 0 c1.86 0 3 -0.56 3 -2.32 c0 -1.34 -0.82 -2.1 -2.98 -2.1 l-3.52 0 z M103.8375 20 l0 -14.36 l6.32 0 c2.68 0 4.06 1.66 4.06 3.62 c0 0.94 -0.34 2.26 -1.92 3 c0.94 0.38 2.6 1.04 2.6 3.5 c0 2.3 -1.7 4.24 -4.88 4.24 l-6.18 0 z M105.7775 13.3 l0 5.04 l4.14 0 c2.02 0 3.04 -1.02 3.04 -2.62 c0 -2.02 -1.78 -2.42 -3.36 -2.42 l-3.82 0 z M134.725 12.82 c0 -3.38 -1.88 -5.84 -5 -5.84 s-5 2.46 -5 5.84 s1.88 5.84 5 5.84 s5 -2.46 5 -5.84 z M136.725 12.82 c0 3.1 -1.64 7.56 -7 7.56 s-7 -4.46 -7 -7.56 s1.64 -7.56 7 -7.56 s7 4.46 7 7.56 z M147.4525 13.84 l0 6.16 l-1.94 0 l0 -14.36 l6.64 0 c2.36 0 4.72 0.82 4.72 3.86 c0 2.12 -1.08 2.9 -2 3.44 c0.82 0.34 1.64 0.7 1.72 2.7 l0.12 2.6 c0.02 0.8 0.12 1.1 0.72 1.44 l0 0.32 l-2.38 0 c-0.28 -0.88 -0.34 -3.06 -0.34 -3.6 c0 -1.18 -0.24 -2.56 -2.56 -2.56 l-4.7 0 z M147.4525 7.3 l0 4.88 l4.5 0 c1.42 0 2.92 -0.36 2.92 -2.48 c0 -2.22 -1.62 -2.4 -2.58 -2.4 l-4.84 0 z M166.06 20 l0 -14.36 l5.82 0 c3.74 0 6.04 2.84 6.04 6.98 c0 3.22 -1.4 7.38 -6.12 7.38 l-5.74 0 z M168 7.3 l0 11.04 l3.76 0 c2.52 0 4.16 -1.98 4.16 -5.6 s-1.66 -5.44 -4.3 -5.44 l-3.62 0 z M197.4475 18.28 l0 1.72 l-10.6 0 l0 -14.36 l10.46 0 l0 1.72 l-8.52 0 l0 4.4 l7.86 0 l0 1.72 l-7.86 0 l0 4.8 l8.66 0 z M208.415 13.84 l0 6.16 l-1.94 0 l0 -14.36 l6.64 0 c2.36 0 4.72 0.82 4.72 3.86 c0 2.12 -1.08 2.9 -2 3.44 c0.82 0.34 1.64 0.7 1.72 2.7 l0.12 2.6 c0.02 0.8 0.12 1.1 0.72 1.44 l0 0.32 l-2.38 0 c-0.28 -0.88 -0.34 -3.06 -0.34 -3.6 c0 -1.18 -0.24 -2.56 -2.56 -2.56 l-4.7 0 z M208.415 7.3 l0 4.88 l4.5 0 c1.42 0 2.92 -0.36 2.92 -2.48 c0 -2.22 -1.62 -2.4 -2.58 -2.4 l-4.84 0 z M229.1625 5.64 l0 14.36 l-1.94 0 l0 -14.36 l1.94 0 z M245.61 17.04 l0.98 -1.2 l1.82 1.42 c1.02 -1.02 1.58 -2.6 1.58 -4.44 c0 -3.38 -1.88 -5.84 -5 -5.84 s-5 2.46 -5 5.84 s1.88 5.84 5 5.84 c0.8 0 1.52 -0.16 2.12 -0.46 z M251.87 19.96 l-0.98 1.16 l-2.2 -1.7 c-0.94 0.6 -2.18 0.96 -3.7 0.96 c-5.36 0 -7 -4.46 -7 -7.56 s1.64 -7.56 7 -7.56 s7 4.46 7 7.56 c0 1.82 -0.56 4.08 -2.08 5.62 z"></path></g>
			</g>
		</svg>
	